<svg xmlns="http://www.w3.org/2000/svg" xmlns:xlink="http://www.w3.org/1999/xlink" width="640" height="480" viewBox="0 0 640 480"><defs><radialGradient id="a" cx="238.51" cy="1247.73" r="230.71" gradientTransform="matrix(0, 1, 0.79, 0, -707.65, -101.61)" gradientUnits="userSpaceOnUse"><stop offset="0.6" stop-color="#ffca28"/><stop offset="1" stop-color="#ffb300"/></radialGradient><radialGradient id="b" cx="1927.64" cy="1735.72" r="53.89" gradientTransform="matrix(-1.39, 0.08, 0.04, 0.68, 3021.04, -1120.82)" gradientUnits="userSpaceOnUse"><stop offset="0.6" stop-color="#ffca28"/><stop offset="1" stop-color="#ffb300"/></radialGradient><radialGradient id="c" cx="2067.27" cy="1930.54" r="49.71" gradientTransform="matrix(-1.7, 0, 0, 0.68, 3934.86, -1046.76)" xlink:href="#b"/><radialGradient id="d" cx="2028.84" cy="1823.17" r="54.2" gradientTransform="matrix(-1.31, -0.01, 0, 0.68, 3065.1, -873.53)" xlink:href="#b"/><radialGradient id="e" cx="2079.56" cy="1951.74" r="49.33" gradientTransform="matrix(-1.64, 0, 0, 0.68, 3822.51, -1013.01)" xlink:href="#b"/></defs><title>de_SP_normal</title><path d="M0,320H640V480H0Z" style="fill:#ffce00"/><path d="M0,0H640V160H0Z"/><path d="M0,160H640V320H0Z" style="fill:#d00"/><path d="M363.63,378.31c-22.87-.19-57.2-1.09-91-4.27-23.25-2.2-47.26-5.67-65.5-16-5.14-2.92-10.76-3.63-15.74-4.24a58.57,58.57,0,0,1-5.8-.9,28.17,28.17,0,0,1-22-27.2l-.19-86.81A24,24,0,0,1,183.79,215a5,5,0,0,0,.61-.13c1.46-.48,36.29-11.82,62.53-32.34,12.35-9.65,22.93-24.52,28.31-39.76s5.33-31.75,5.3-45.06c0-8.59,0-19.27,2.31-20.83a33.28,33.28,0,0,1,18.58-5.65c20.46,0,41.35,18.69,42.17,37.72.58,13.2-3.84,28.79-8.11,43.84-5,17.84-9.41,33.24-5.46,43.71a4,4,0,0,0,3.71,2.57l19.32-.66h.19a39.31,39.31,0,0,1,39.26,39.2l.13,111.88a28.82,28.82,0,0,1-28.81,28.84Z" style="fill:url(#a)"/><path d="M301.42,75.19c18.18,0,37.45,17.12,38.2,33.9.56,12.56-3.76,27.83-8,42.6-5.25,18.5-9.75,34.48-5.35,46.17a8,8,0,0,0,7.45,5.14H334l19.08-.66h.16a35.33,35.33,0,0,1,35.28,35.25l.13,111.88a24.84,24.84,0,0,1-24.84,24.86h-.21c-22.8-.19-57-1.09-90.62-4.24-22.8-2.15-46.33-5.54-63.91-15.51-5.83-3.31-12.14-4.08-17.2-4.72a46.15,46.15,0,0,1-5.38-.85,24.17,24.17,0,0,1-19-23.33l-.21-86.81a20,20,0,0,1,17-20,6,6,0,0,0,1.19-.29c1.48-.48,36.95-12.06,63.75-33,12.91-10.1,24-25.63,29.61-41.56s5.57-32.76,5.54-46.39c0-6.47,0-15.21,1.09-17.87a29.08,29.08,0,0,1,15.85-4.64m0-8a37.18,37.18,0,0,0-20.78,6.31c-8.59,5.67.72,39.81-9.17,67.86a86.52,86.52,0,0,1-27,38c-26,20.3-61.28,31.7-61.28,31.7a28.11,28.11,0,0,0-23.75,27.86l.21,86.81a32.15,32.15,0,0,0,25.07,31c5.88,1.38,13.92,1,20.49,4.74,17.57,10,40.1,13.94,67.09,16.49,33.4,3.15,67.33,4.08,91.31,4.29h.27a32.78,32.78,0,0,0,32.79-32.81l-.13-111.88a43.23,43.23,0,0,0-43.23-43.18H353l-19.19.66c-6.63-17.6,15.08-57.2,13.81-86.33-.93-20.7-23-41.51-46.17-41.51Z" style="fill:#eda600"/><path d="M312.21,221.48c5,13.25,5,33.93,0,46.7-7.29,18.45-25.13,34.59-45.72,37.43-5,.69-2,5.33,3,4.64,22.29-3.07,52.46-12.11,60.3-32.13,21.52-55-3.66-83.81-14.9-75.22C309.45,207.08,309.4,214,312.21,221.48Z" style="fill:#eda600"/><path d="M365.64,241.14c-22.16,0-48.8-4.11-49.94-23.75A18.49,18.49,0,0,1,320.9,203c10-10.66,34.72-16.51,69.5-16.51,12.62,0,21.81.82,21.92.82l.34,0h.24c.37,0,.72,0,1.09,0,11.27,0,20.67,10.15,21.44,23.11.8,13.41-8,24.86-19.67,25.53a2.21,2.21,0,0,0-.58.08C414.95,236.06,390.4,241.14,365.64,241.14Z" style="fill:url(#b)"/><path d="M390.43,190.46c12.4,0,21.47.8,21.55.8a6.46,6.46,0,0,0,.72,0,2.43,2.43,0,0,0,.45,0c.29,0,.58,0,.85,0,9.14,0,16.83,8.51,17.47,19.35a22.18,22.18,0,0,1-4.48,15,15.78,15.78,0,0,1-11.45,6.31,8.24,8.24,0,0,0-1.17.16c-.24.05-24.44,5.06-48.72,5.06-14.1,0-25.29-1.64-33.21-4.88-10.89-4.45-12.51-10.76-12.75-15.11a14.53,14.53,0,0,1,4.13-11.45c9.14-9.67,33.42-15.24,66.61-15.24m0-8c-30.27,0-80.47,4.59-78.7,35.12,1.3,22.05,27.91,27.49,53.91,27.49,25.47,0,50.36-5.22,50.36-5.22,13.84-.82,24.33-14.13,23.4-29.74h0c-.87-15.11-12.11-26.85-25.39-26.85-.45,0-.87,0-1.33,0,0,0-9.3-.82-22.27-.82Z" style="fill:#eda600"/><path d="M382.26,291.59c-28.92,0-63.38-4.85-63.38-28s34.46-28,63.38-28a336.72,336.72,0,0,1,47.07,3.6,5.15,5.15,0,0,0,.64.05c11.69,0,19.83,12.35,19.83,23.43,0,11.69-8.67,25.26-19.83,25.26a5.15,5.15,0,0,0-.64.05A330.73,330.73,0,0,1,382.26,291.59Z" style="fill:url(#c)"/><path d="M382.26,239.55a332.79,332.79,0,0,1,46.44,3.55,6.87,6.87,0,0,0,1.27.11c9.07,0,15.85,10.28,15.85,19.46,0,9.57-7.32,21.28-15.85,21.28a6.87,6.87,0,0,0-1.27.11,333.28,333.28,0,0,1-46.44,3.55c-18.1,0-32.5-1.91-42.81-5.7-14.87-5.46-16.59-13.09-16.59-18.34s1.72-12.88,16.59-18.34c10.28-3.76,24.7-5.67,42.81-5.67h0m0-8c-31.62,0-67.35,5.8-67.35,32s35.7,32,67.35,32A336.09,336.09,0,0,0,430,291.93c13.68,0,23.8-15.67,23.8-29.24s-10.13-27.41-23.8-27.41a329.72,329.72,0,0,0-47.71-3.68Z" style="fill:#eda600"/><path d="M404.29,379.69c-11.16,0-67.7-.87-84.82-18a13.56,13.56,0,0,1-4.43-9.89c.05-13.92,23.88-21.89,65.36-21.89,14.79,0,26.24,1.06,26.37,1.06l.34,0a22.7,22.7,0,0,1,16.43,7.13,24.8,24.8,0,0,1,6.84,17.28c-.05,13.39-10.52,24.25-23.35,24.25A26.38,26.38,0,0,1,404.29,379.69Z" style="fill:url(#d)"/><path d="M380.43,333.89c14.55,0,25.87,1,26,1.06a6.46,6.46,0,0,0,.72,0,18.82,18.82,0,0,1,13.57,5.91,20.73,20.73,0,0,1,5.73,14.53c0,11.19-8.72,20.3-19.46,20.3h-.19c-.05,0-1,0-2.52,0-48.11,0-74.24-9.09-82-16.86-2.94-2.94-3.26-5.43-3.26-7.05.08-11.08,23.59-17.94,61.44-17.94m0-8c-28.41,0-69.29,3.82-69.34,25.84-.11,30.38,77.66,31.89,93.2,31.89,1.72,0,2.68,0,2.68,0H407c15.06,0,27.27-12.62,27.33-28.23S422.23,327.05,407.15,327c0,0-11.58-1.06-26.72-1.06Z" style="fill:#eda600"/><path d="M394.38,337.63c-23.83,0-79.23-2.7-79.23-27.75,0-21,39.94-24.17,63.77-24.17a344.19,344.19,0,0,1,39.41,2.36,3.21,3.21,0,0,0,.5,0c11.05,0,23.94,5.46,23.94,20.86,0,14.58-11.4,27.83-23.94,27.83h-.32C418.42,336.8,408.21,337.63,394.38,337.63Z" style="fill:url(#e)"/><path d="M378.92,281.75v8A339,339,0,0,1,417.81,292a6.76,6.76,0,0,0,1,.05c9.65,0,20,4.43,20,16.88,0,12.27-9.7,23.86-20,23.86a5.76,5.76,0,0,0-.66,0c-.11,0-10.15.82-23.83.82-14.45,0-35.09-.93-51.45-5.27-15.77-4.21-23.78-10.44-23.78-18.47,0-2.47,0-10,16.8-15.24,10.47-3.29,24.92-5,43-5l0-8m0,0c-30.64,0-67.75,4.82-67.75,28.15,0,27.49,51.42,31.73,83.2,31.73,14.21,0,24.47-.85,24.47-.85,14.95,0,27.91-15.45,27.91-31.81s-13-24.84-27.91-24.84a347.5,347.5,0,0,0-39.92-2.39Z" style="fill:#eda600"/><polygon points="210.61 360.37 197.91 310.27 192.61 355.33 210.61 360.37" style="fill:#eda600"/></svg>