<svg xmlns="http://www.w3.org/2000/svg" xmlns:xlink="http://www.w3.org/1999/xlink" width="512.01" height="512.01" viewBox="0 0 512.01 512.01"><defs><radialGradient id="a" cx="195.47" cy="1304.39" r="225.89" gradientTransform="matrix(0, 1, 0.79, 0, -784.39, -21.64)" gradientUnits="userSpaceOnUse"><stop offset="0.6" stop-color="#ffca28"/><stop offset="1" stop-color="#ffb300"/></radialGradient><radialGradient id="b" cx="1843.5" cy="1782.81" r="52.77" gradientTransform="matrix(-1.39, 0.08, 0.04, 0.68, 2867.59, -1110.61)" gradientUnits="userSpaceOnUse"><stop offset="0.6" stop-color="#ffca28"/><stop offset="1" stop-color="#ffb300"/></radialGradient><radialGradient id="c" cx="1986.2" cy="1973.61" r="48.67" gradientTransform="matrix(-1.7, 0, 0, 0.68, 3762.32, -1041.77)" xlink:href="#b"/><radialGradient id="d" cx="1942.39" cy="1863.28" r="53.06" gradientTransform="matrix(-1.31, -0.01, 0, 0.68, 2917.53, -868.82)" xlink:href="#b"/><radialGradient id="e" cx="1997.78" cy="1993.33" r="48.3" gradientTransform="matrix(-1.64, 0, 0, 0.68, 3653.86, -1008.02)" xlink:href="#b"/></defs><title>de_SP</title><path d="M0,341.34H512V512H0Z" style="fill:#ffce00"/><path d="M0,0H512V170.67H0Z"/><path d="M0,170.67H512V341.34H0Z" style="fill:#d00"/><path d="M329.73,410.35c-22.4-.18-56-1.06-89.07-4.18-22.76-2.15-46.27-5.55-64.13-15.68-5-2.85-10.54-3.56-15.42-4.15a57.35,57.35,0,0,1-5.68-.88,27.58,27.58,0,0,1-21.57-26.63l-.18-85a23.49,23.49,0,0,1,20-23.41,4.91,4.91,0,0,0,.6-.13c1.43-.47,35.53-11.58,61.22-31.66,12.09-9.45,22.45-24,27.72-38.93s5.22-31.09,5.19-44.12c0-8.41,0-18.87,2.26-20.4a32.59,32.59,0,0,1,18.19-5.53c20,0,40.49,18.3,41.29,36.93.57,12.92-3.76,28.18-7.94,42.93-4.93,17.47-9.21,32.55-5.35,42.8a3.87,3.87,0,0,0,3.63,2.52l18.92-.65h.18A38.49,38.49,0,0,1,358,272.57l.13,109.55a28.22,28.22,0,0,1-28.21,28.24Z" style="fill:url(#a)"/><path d="M268.82,113.56c17.8,0,36.67,16.77,37.4,33.19.55,12.3-3.69,27.25-7.79,41.71-5.14,18.12-9.55,33.76-5.24,45.21a7.78,7.78,0,0,0,7.29,5h.29l18.69-.65h.16a34.59,34.59,0,0,1,34.54,34.52l.13,109.55A24.32,24.32,0,0,1,330,406.46h-.21c-22.32-.18-55.82-1.06-88.73-4.15-22.32-2.1-45.37-5.42-62.57-15.18-5.71-3.24-11.89-4-16.84-4.62a45.19,45.19,0,0,1-5.27-.83,23.67,23.67,0,0,1-18.56-22.84l-.21-85a19.6,19.6,0,0,1,16.66-19.54,5.91,5.91,0,0,0,1.17-.29c1.45-.47,36.18-11.81,62.42-32.31,12.64-9.89,23.49-25.1,29-40.69s5.45-32.08,5.42-45.42c0-6.33,0-14.9,1.06-17.49a28.47,28.47,0,0,1,15.52-4.54m0-7.79a36.41,36.41,0,0,0-20.35,6.18c-8.41,5.55.7,39-9,66.44A84.71,84.71,0,0,1,213,215.55c-25.43,19.88-60,31-60,31a27.53,27.53,0,0,0-23.25,27.28l.21,85a31.47,31.47,0,0,0,24.55,30.39c5.76,1.35,13.63,1,20.06,4.65,17.21,9.76,39.27,13.65,65.69,16.14,32.7,3.09,65.92,4,89.41,4.2H330a32.1,32.1,0,0,0,32.1-32.13l-.13-109.55a42.33,42.33,0,0,0-42.33-42.28h-.31l-18.79.65c-6.49-17.23,14.77-56,13.52-84.53-.91-20.27-22.53-40.64-45.21-40.64Z" style="fill:#eda600"/><path d="M279.38,256.79c4.88,13,4.93,33.22,0,45.73-7.14,18.06-24.6,33.87-44.77,36.65-4.93.67-2,5.22,2.91,4.54,21.83-3,51.36-11.86,59-31.45C317.63,258.4,293,230.19,282,238.6,276.68,242.7,276.63,249.45,279.38,256.79Z" style="fill:#eda600"/><path d="M331.7,276c-21.7,0-47.78-4-48.9-23.25a18.1,18.1,0,0,1,5.09-14.09c9.84-10.43,34-16.17,68-16.17,12.35,0,21.36.8,21.46.8l.34,0H378c.36,0,.7,0,1.06,0,11,0,20.24,9.94,21,22.63.78,13.13-7.86,24.34-19.26,25a2.16,2.16,0,0,0-.57.08C380,271.06,355.94,276,331.7,276Z" style="fill:url(#b)"/><path d="M356,226.43c12.15,0,21,.78,21.1.78a6.33,6.33,0,0,0,.7,0,2.37,2.37,0,0,0,.44,0c.29,0,.57,0,.83,0,9,0,16.48,8.33,17.1,18.95a21.72,21.72,0,0,1-4.39,14.72A15.45,15.45,0,0,1,380.54,267a8.07,8.07,0,0,0-1.14.16c-.23.05-23.93,5-47.7,5-13.81,0-24.76-1.61-32.52-4.78-10.67-4.36-12.25-10.54-12.48-14.79a14.23,14.23,0,0,1,4-11.21c9-9.47,32.73-14.92,65.22-14.92m0-7.79c-29.64,0-78.79,4.49-77.05,34.39,1.27,21.59,27.33,26.91,52.79,26.91,24.94,0,49.31-5.11,49.31-5.11,13.55-.8,23.82-13.83,22.92-29.12h0c-.86-14.79-11.86-26.29-24.86-26.29-.44,0-.86,0-1.3,0,0,0-9.11-.8-21.8-.8Z" style="fill:#eda600"/><path d="M348,325.44c-28.31,0-62.05-4.75-62.05-27.43s33.74-27.43,62.05-27.43a329.69,329.69,0,0,1,46.09,3.53,5,5,0,0,0,.62.05c11.45,0,19.41,12.09,19.41,22.94,0,11.45-8.49,24.73-19.41,24.73a5,5,0,0,0-.62.05A323.83,323.83,0,0,1,348,325.44Z" style="fill:url(#c)"/><path d="M348,274.49A325.85,325.85,0,0,1,393.44,278a6.73,6.73,0,0,0,1.25.1c8.88,0,15.52,10.07,15.52,19,0,9.37-7.16,20.84-15.52,20.84a6.73,6.73,0,0,0-1.25.1A326.32,326.32,0,0,1,348,321.54c-17.73,0-31.82-1.87-41.91-5.58-14.56-5.35-16.25-12.82-16.25-18s1.69-12.61,16.25-18c10.07-3.69,24.19-5.55,41.91-5.55h0m0-7.79C317,266.7,282,272.39,282,298s35,31.33,65.95,31.33a329.07,329.07,0,0,0,46.72-3.58c13.39,0,23.31-15.34,23.31-28.63s-9.91-26.84-23.31-26.84A322.84,322.84,0,0,0,348,266.7Z" style="fill:#eda600"/><path d="M369.54,411.7c-10.93,0-66.28-.86-83-17.65a13.28,13.28,0,0,1-4.33-9.68c.05-13.63,23.38-21.44,64-21.44,14.48,0,25.69,1,25.82,1l.34,0a22.23,22.23,0,0,1,16.09,7,24.28,24.28,0,0,1,6.7,16.92c-.05,13.11-10.3,23.75-22.86,23.75A25.83,25.83,0,0,1,369.54,411.7Z" style="fill:url(#d)"/><path d="M346.18,366.86c14.25,0,25.33,1,25.43,1a6.32,6.32,0,0,0,.7,0,18.43,18.43,0,0,1,13.29,5.79,20.29,20.29,0,0,1,5.61,14.22c0,11-8.54,19.88-19,19.88H372c-.05,0-.93,0-2.47,0-47.1,0-72.69-8.9-80.3-16.51-2.88-2.88-3.19-5.32-3.19-6.9.08-10.85,23.1-17.57,60.16-17.57m0-7.79c-27.82,0-67.84,3.74-67.89,25.3-.1,29.74,76,31.22,91.25,31.22,1.69,0,2.62,0,2.62,0h.08c14.74,0,26.71-12.35,26.76-27.64s-11.89-27.77-26.65-27.82c0,0-11.34-1-26.16-1Z" style="fill:#eda600"/><path d="M359.83,370.52c-23.33,0-77.57-2.65-77.57-27.17,0-20.61,39.11-23.67,62.44-23.67A337,337,0,0,1,383.29,322a3.14,3.14,0,0,0,.49,0c10.82,0,23.44,5.35,23.44,20.42,0,14.27-11.16,27.25-23.44,27.25h-.31C383.37,369.71,373.38,370.52,359.83,370.52Z" style="fill:url(#e)"/><path d="M344.7,315.81v7.79a331.9,331.9,0,0,1,38.07,2.28,6.62,6.62,0,0,0,1,.05c9.45,0,19.54,4.33,19.54,16.53,0,12-9.5,23.36-19.54,23.36a5.64,5.64,0,0,0-.65,0c-.1,0-9.94.8-23.33.8-14.14,0-34.36-.91-50.37-5.16-15.44-4.13-23.28-10.23-23.28-18.09,0-2.41,0-9.76,16.45-14.92,10.25-3.22,24.4-4.85,42.07-4.85l0-7.81m0,0c-30,0-66.34,4.72-66.34,27.56,0,26.91,50.35,31.07,81.47,31.07,13.91,0,24-.83,24-.83,14.64,0,27.33-15.13,27.33-31.14s-12.69-24.32-27.33-24.32a340.25,340.25,0,0,0-39.09-2.34Z" style="fill:#eda600"/><polygon points="179.9 392.78 167.47 343.73 162.28 387.85 179.9 392.78" style="fill:#eda600"/></svg>